<svg width="18" height="20" viewBox="0 0 18 20" fill="none" xmlns="http://www.w3.org/2000/svg">
<path d="M14.6643 19.1976C13.5658 20.253 12.3665 20.0864 11.212 19.5864C9.99031 19.0754 8.86946 19.0532 7.58049 19.5864C5.96647 20.2752 5.11462 20.0752 4.15069 19.1976C-1.31905 13.6094 -0.512039 5.09936 5.69746 4.78829C7.21061 4.86605 8.26421 5.6104 9.14968 5.67706C10.4723 5.41043 11.7388 4.64386 13.1511 4.74385C14.8436 4.87716 16.1214 5.54375 16.962 6.74359C13.4649 8.82111 14.2944 13.3872 17.5 14.6648C16.8611 16.3313 16.0317 17.9866 14.653 19.2087L14.6643 19.1976ZM9.03759 4.72163C8.86946 2.24416 10.8982 0.199975 13.2296 0C13.5546 2.86631 10.6068 4.99937 9.03759 4.72163Z" fill="#0A0A0A"/>
</svg>
