<svg width="24" height="24" viewBox="0 0 24 24" fill="none" xmlns="http://www.w3.org/2000/svg">
<path d="M10.707 15.1211C10.8946 15.3086 10.9999 15.563 10.9999 15.8282V19C10.9999 19.5523 11.4477 20 11.9999 20C12.5522 20 12.9999 19.5523 12.9999 19V15.414C12.9999 14.888 12.7859 14.372 12.4139 14L11.121 12.7071C10.7305 12.3166 10.7305 11.6834 11.121 11.2929L12.2928 10.1211C12.6834 9.73057 13.3165 9.73057 13.707 10.1211L14.9999 11.414C15.3719 11.786 15.8879 12 16.4139 12H18.9999C19.5522 12 19.9999 11.5523 19.9999 11C19.9999 10.4477 19.5522 9.99999 18.9999 9.99999H16.8282C16.5629 9.99999 16.3086 9.89463 16.121 9.70709L12.7069 6.29299C12.6142 6.20004 12.5039 6.1263 12.3826 6.07599C12.2613 6.02568 12.1313 5.99979 11.9999 5.99979C11.8686 5.99979 11.7386 6.02568 11.6172 6.07599C11.4959 6.1263 11.3857 6.20004 11.2929 6.29299L7.99994 9.58599C7.62194 9.96399 7.41394 10.466 7.41394 11C7.41394 11.534 7.62194 12.036 7.99994 12.414L10.707 15.1211Z" fill="black"/>
<path d="M16 7C17.1046 7 18 6.10457 18 5C18 3.89543 17.1046 3 16 3C14.8954 3 14 3.89543 14 5C14 6.10457 14.8954 7 16 7Z" fill="black"/>
<path d="M18 14C15.794 14 14 15.794 14 18C14 20.206 15.794 22 18 22C20.206 22 22 20.206 22 18C22 15.794 20.206 14 18 14ZM18 20C16.897 20 16 19.103 16 18C16 16.897 16.897 16 18 16C19.103 16 20 16.897 20 18C20 19.103 19.103 20 18 20ZM6 22C8.206 22 10 20.206 10 18C10 15.794 8.206 14 6 14C3.794 14 2 15.794 2 18C2 20.206 3.794 22 6 22ZM6 16C7.103 16 8 16.897 8 18C8 19.103 7.103 20 6 20C4.897 20 4 19.103 4 18C4 16.897 4.897 16 6 16Z" fill="black"/>
</svg>
