<svg width="37" height="36" viewBox="0 0 37 36" fill="none" xmlns="http://www.w3.org/2000/svg">
<rect x="0.5" width="36" height="36" rx="18" fill="#E4E4E5"/>
<path d="M25.25 11.25C24.5638 11.25 23.9338 10.8563 23.6188 10.2488L22.8088 8.6175C22.2913 7.59375 20.9413 6.75 19.7938 6.75H17.2175C16.0588 6.75 14.7088 7.59375 14.1913 8.6175L13.3813 10.2488C13.0663 10.8563 12.4363 11.25 11.75 11.25C9.30876 11.25 7.37376 13.3087 7.53126 15.7387L8.11626 25.0312C8.25126 27.3487 9.50001 29.25 12.605 29.25H24.395C27.5 29.25 28.7375 27.3487 28.8838 25.0312L29.4688 15.7387C29.6263 13.3087 27.6913 11.25 25.25 11.25ZM16.8125 12.6562H20.1875C20.6488 12.6562 21.0313 13.0388 21.0313 13.5C21.0313 13.9612 20.6488 14.3438 20.1875 14.3438H16.8125C16.3513 14.3438 15.9688 13.9612 15.9688 13.5C15.9688 13.0388 16.3513 12.6562 16.8125 12.6562ZM18.5 24.885C16.4075 24.885 14.6975 23.1863 14.6975 21.0825C14.6975 18.9787 16.3963 17.28 18.5 17.28C20.6038 17.28 22.3025 18.9787 22.3025 21.0825C22.3025 23.1863 20.5925 24.885 18.5 24.885Z" fill="white"/>
</svg>
