<svg width="28" height="28" viewBox="0 0 28 28" fill="none" xmlns="http://www.w3.org/2000/svg">
<path d="M23 0.5H5C3.80653 0.5 2.66193 0.974106 1.81802 1.81802C0.974106 2.66193 0.5 3.80653 0.5 5V23C0.5 24.1935 0.974106 25.3381 1.81802 26.182C2.66193 27.0259 3.80653 27.5 5 27.5H23C24.1935 27.5 25.3381 27.0259 26.182 26.182C27.0259 25.3381 27.5 24.1935 27.5 23V5C27.5 3.80653 27.0259 2.66193 26.182 1.81802C25.3381 0.974106 24.1935 0.5 23 0.5ZM5 3.5H23C23.3978 3.5 23.7794 3.65804 24.0607 3.93934C24.342 4.22064 24.5 4.60218 24.5 5V17.54L19.7 13.445C18.9563 12.8331 18.0231 12.4985 17.06 12.4985C16.0969 12.4985 15.1637 12.8331 14.42 13.445L3.5 22.55V5C3.5 4.60218 3.65804 4.22064 3.93934 3.93934C4.22064 3.65804 4.60218 3.5 5 3.5Z" fill="#797C99"/>
<path d="M8 11C9.24264 11 10.25 9.99264 10.25 8.75C10.25 7.50736 9.24264 6.5 8 6.5C6.75736 6.5 5.75 7.50736 5.75 8.75C5.75 9.99264 6.75736 11 8 11Z" fill="#797C99"/>
</svg>
