<svg width="24" height="24" viewBox="0 0 24 24" fill="none" xmlns="http://www.w3.org/2000/svg">
<path d="M15.0936 5.97742C16.8021 7.68596 16.8021 10.4561 15.0936 12.1646C13.385 13.8731 10.6149 13.8731 8.9064 12.1646C7.19787 10.4561 7.19787 7.68596 8.9064 5.97742C10.6149 4.26888 13.385 4.26888 15.0936 5.97742" stroke="#010101" stroke-width="1.5" stroke-linecap="round" stroke-linejoin="round"/>
<path d="M11.125 8.19601L12 7.32101V10.821" stroke="#010101" stroke-width="1.5" stroke-linecap="round" stroke-linejoin="round"/>
<path d="M11.12 10.82H12.88" stroke="#010101" stroke-width="1.5" stroke-linecap="round" stroke-linejoin="round"/>
<path d="M17 4.07105C19.7614 6.83245 19.7614 11.3096 17 14.071C14.2386 16.8324 9.76152 16.8324 7.00013 14.071C4.23873 11.3096 4.23873 6.83244 7.00013 4.07105C9.76153 1.30965 14.2386 1.30965 17 4.07105" stroke="#010101" stroke-width="1.5" stroke-linecap="round" stroke-linejoin="round"/>
<path fill-rule="evenodd" clip-rule="evenodd" d="M17.279 19H6.72099C6.29099 19 5.90799 19.275 5.77199 19.684L5.43899 20.684C5.22299 21.331 5.70499 22 6.38699 22H17.612C18.295 22 18.777 21.331 18.561 20.684L18.228 19.684C18.092 19.275 17.71 19 17.279 19V19Z" stroke="#010101" stroke-width="1.5" stroke-linecap="round" stroke-linejoin="round"/>
<path d="M14.4601 19L13.9701 15.86" stroke="#010101" stroke-width="1.5" stroke-linecap="round" stroke-linejoin="round"/>
<path d="M9.54003 19L10.03 15.86" stroke="#010101" stroke-width="1.5" stroke-linecap="round" stroke-linejoin="round"/>
</svg>
