<svg width="221" height="80" viewBox="0 0 221 80" fill="none" xmlns="http://www.w3.org/2000/svg">
<path d="M220.221 65.6719H191.1V17.605H198.464V59.0443H220.221V65.6719Z" fill="#562CCE"/>
<path d="M168.927 65.6719H161.563V24.2326H145.898V17.605H184.592V24.2326H168.927V65.6719Z" fill="#562CCE"/>
<path d="M120.797 65.6719H113.433V17.605H142.621V24.0318H120.797V39.697H139.408V46.1238H120.797V65.6719Z" fill="#562CCE"/>
<path fill-rule="evenodd" clip-rule="evenodd" d="M45.5933 0.0387459C42.5859 0.325525 39.7244 1.7722 37.3634 4.1995C36.2967 5.29629 35.5421 6.35134 34.871 7.68451C34.4656 8.49011 34.2751 8.96114 33.9052 10.0725C33.6542 10.8268 33.6197 10.9897 33.5941 11.5428C33.5596 12.2891 33.6454 12.6861 33.981 13.3327C34.594 14.5134 35.8275 15.1409 37.0439 14.891C37.9303 14.7089 38.7628 14.146 39.2152 13.4229C39.5041 12.9609 39.59 12.7326 39.7897 11.8967C40.1674 10.3156 40.8328 9.11717 41.9114 8.07546C43.995 6.06309 47.0679 5.46912 49.6593 6.57789C50.7034 7.02466 51.8703 8.02117 52.5612 9.05603C53.2275 10.0542 53.7398 11.338 54.0168 12.7037C54.2246 13.7281 54.2376 15.0264 54.0491 15.9115C53.7215 17.4497 52.977 18.8018 51.8651 19.8779C50.7706 20.9372 49.5488 21.5443 47.9639 21.8164C47.3799 21.9168 47.1323 21.9288 46.1832 21.9026C45.3914 21.8808 44.9507 21.842 44.6185 21.7649L44.1561 21.6574L43.8197 21.7793C43.1552 22.02 42.6928 22.373 42.3143 22.9284C41.8938 23.5454 41.8025 23.8614 41.8046 24.6914C41.8063 25.3308 41.8211 25.4333 41.9604 25.7659C42.261 26.4837 42.8862 27.1379 43.5546 27.4342C43.9485 27.6087 44.3486 27.695 44.8651 27.7166C45.1082 27.7269 45.6377 27.7661 46.0419 27.8039C49.7256 28.1476 53.6159 26.7171 56.2738 24.0414C58.3627 21.9385 59.864 18.8618 60.3443 15.6995C60.4722 14.8572 60.5164 13.1637 60.432 12.3346C60.065 8.72639 58.356 5.58092 55.4777 3.21645C53.9979 2.00079 51.4839 0.791804 49.462 0.323546C48.2761 0.0488695 46.7022 -0.0670078 45.5933 0.0387459ZM18.4555 19.9461C16.7937 20.0897 15.212 20.3993 13.9614 20.8257C8.52103 22.6806 4.19239 27.4434 2.74099 33.1713C1.74234 37.1127 2.20922 41.2275 4.06932 44.8774C5.48437 47.654 7.88632 50.352 10.4264 52.0179C13.6476 54.1306 17.5984 54.8909 22.0934 54.2632C26.4943 53.6484 31.4799 51.6758 36.6297 48.5116C38.7434 47.2129 41.8314 45.0129 42.3491 44.4368C42.8702 43.857 43.1311 43.1557 43.13 42.3381C43.1292 41.7782 43.0338 41.3714 42.7912 40.8933C42.057 39.446 40.242 38.8225 38.7505 39.5051C38.5634 39.5906 37.9398 40.0155 37.3646 40.4491C32.0737 44.4379 26.3056 47.2331 21.81 47.987C20.7761 48.1603 20.1376 48.2154 19.1621 48.2152C16.4788 48.2148 14.3987 47.4455 12.5636 45.7747C8.83285 42.3778 7.58903 38.0453 9.10051 33.7115C9.64422 32.1525 10.5302 30.7393 11.7544 29.4784C14.0255 27.1391 16.5338 26.151 20.2079 26.1483C22.8075 26.1464 25.0062 26.7209 27.8677 28.1495C30.7252 29.5762 33.132 31.1776 40.3607 36.4616C50.2694 43.7046 57.3882 48.5044 62.9725 51.7074C65.3377 53.0639 65.93 53.3342 67.4666 53.7573C70.1202 54.4882 73.0136 54.7967 75.4432 54.6076C81.1043 54.1672 85.556 51.5303 88.4754 46.8883C88.9673 46.1063 89.8044 44.4558 90.0674 43.7496C91.1449 40.8563 91.501 37.499 91.033 34.6446C90.1344 29.1633 86.6265 24.7522 80.7511 21.7148C79.4302 21.0319 78.7484 20.8024 77.3422 20.5671C76.127 20.3638 75.4147 20.3207 73.8041 20.3528C71.7621 20.3935 70.4457 20.5927 68.4705 21.1598C66.3243 21.7761 64.3778 22.687 60.7199 24.787C57.6522 26.5482 53.8355 29.0512 52.1607 30.4001C51.4138 31.0017 51.0327 31.6716 50.9138 32.5914C50.8387 33.1727 50.9465 33.74 51.2492 34.3559C52.0429 35.9708 54.2128 36.5382 55.7062 35.5214C55.894 35.3935 56.4038 35.0266 56.8391 34.7061C59.8611 32.4809 65.5536 29.0593 68.1249 27.9226C70.963 26.6678 74.012 26.2613 76.6244 26.7892C77.0867 26.8827 77.317 26.9703 77.8878 27.2702C82.087 29.4759 84.3337 32.2073 84.884 35.7757C85.0081 36.5804 85.0074 38.0387 84.8825 38.9116C84.7743 39.6683 84.48 40.8667 84.2602 41.4457C83.7196 42.8699 82.6703 44.4772 81.5746 45.5593C79.6172 47.4926 77.1656 48.4003 73.911 48.3968C72.238 48.395 70.4399 48.1348 68.9249 47.6754C68.2021 47.4562 67.976 47.3501 66.6752 46.6199C61.7862 43.8752 54.1163 38.7574 45.9006 32.7578C39.4336 28.0353 37.9244 26.959 35.8949 25.6228C30.6062 22.1407 26.851 20.5541 22.6387 20.0218C21.8116 19.9173 19.3127 19.8721 18.4555 19.9461ZM47.116 50.7077C36.3667 51.4467 23.5546 56.9588 9.80646 66.7592C6.29218 69.2644 1.63426 72.9406 0.750812 73.9064C0.0635818 74.6577 -0.182492 75.8578 0.140688 76.8814C0.559912 78.209 1.70497 79.0444 3.1077 79.0462C4.0955 79.0474 4.53959 78.8341 5.82112 77.7426C10.376 73.8632 16.7055 69.3731 22.1299 66.173C32.8447 59.8519 42.5734 56.6372 50.1968 56.8987C52.4673 56.9766 54.2189 57.3286 56.1607 58.0972C58.5668 59.0494 60.4131 60.2881 62.2659 62.1928C65.4949 65.5122 67.5226 70.2558 68.3148 76.3432C68.5272 77.9759 68.7094 78.4588 69.3539 79.096C69.9702 79.7054 70.6816 80 71.5368 80C72.4059 80 73.1042 79.7057 73.7466 79.0686C74.2069 78.6121 74.4604 78.1443 74.5979 77.497C74.7032 77.0015 74.6806 76.6374 74.4432 74.9951C73.4679 68.2492 71.1255 62.7434 67.4538 58.5665C65.5259 56.3734 63.1937 54.5722 60.5418 53.2284C57.9676 51.9241 55.348 51.1247 52.5428 50.7876C51.6636 50.6819 48.2266 50.6314 47.116 50.7077Z" fill="url(#paint0_linear_572_2808)"/>
<defs>
<linearGradient id="paint0_linear_572_2808" x1="29.4992" y1="74.9333" x2="54.6525" y2="14.4984" gradientUnits="userSpaceOnUse">
<stop offset="0.00745906" stop-color="#269BE2"/>
<stop offset="1" stop-color="#562CCE"/>
</linearGradient>
</defs>
</svg>
