<svg width="24" height="24" viewBox="0 0 24 24" fill="none" xmlns="http://www.w3.org/2000/svg">
<path d="M21.4504 9.78094C21.3897 9.59265 21.2749 9.42642 21.1203 9.30295C20.9657 9.17948 20.7782 9.10424 20.5811 9.0866L15.0972 8.58862L12.9287 3.51304C12.7688 3.14109 12.4047 2.90039 12.0001 2.90039C11.5955 2.90039 11.2313 3.14113 11.0715 3.51397L8.90296 8.58866L3.41817 9.0866C3.22135 9.10463 3.03414 9.18003 2.87976 9.30346C2.72539 9.42688 2.61063 9.5929 2.54972 9.78094C2.42462 10.1657 2.54014 10.5877 2.84501 10.8537L6.99023 14.489L5.76789 19.8733C5.67845 20.2692 5.83209 20.6785 6.16059 20.9159C6.33712 21.0435 6.54371 21.1084 6.75201 21.1084C6.93163 21.1084 7.10976 21.06 7.2697 20.9643L12.0001 18.1371L16.7287 20.9643C17.0748 21.1725 17.511 21.1535 17.8387 20.9159C17.9992 20.7998 18.1219 20.639 18.1918 20.4537C18.2616 20.2683 18.2754 20.0665 18.2314 19.8733L17.0091 14.489L21.1543 10.8544C21.3034 10.7242 21.411 10.553 21.4636 10.3622C21.5163 10.1713 21.5117 9.9692 21.4504 9.78094Z" stroke="white" stroke-width="1.5"/>
</svg>
