<svg width="25" height="24" viewBox="0 0 25 24" fill="none" xmlns="http://www.w3.org/2000/svg">
<path d="M6.626 13.8L3.5 17L6 18.5L7.5 21L11.399 16.905" stroke="#010101" stroke-width="1.5" stroke-linecap="round" stroke-linejoin="round"/>
<path d="M13.601 16.905L17.5 21L19 18.5L21.5 17L18.374 13.8" stroke="#010101" stroke-width="1.5" stroke-linecap="round" stroke-linejoin="round"/>
<path d="M17.4497 5.05025C20.1834 7.78392 20.1834 12.2161 17.4497 14.9497C14.7161 17.6834 10.2839 17.6834 7.55025 14.9497C4.81658 12.2161 4.81658 7.78392 7.55025 5.05025C10.2839 2.31658 14.7161 2.31658 17.4497 5.05025" stroke="#010101" stroke-width="1.5" stroke-linecap="round" stroke-linejoin="round"/>
<path fill-rule="evenodd" clip-rule="evenodd" d="M12.499 12.584L14.296 13.528C14.646 13.712 15.055 13.415 14.988 13.025L14.645 11.024L16.099 9.60798C16.382 9.33198 16.226 8.85098 15.835 8.79398L13.826 8.50198L12.928 6.68098C12.753 6.32598 12.248 6.32598 12.073 6.68098L11.175 8.50198L9.16503 8.79498C8.77403 8.85198 8.61803 9.33298 8.90103 9.60898L10.355 11.025L10.012 13.026C9.94503 13.416 10.354 13.713 10.704 13.529L12.501 12.585H12.499V12.584Z" stroke="#010101" stroke-width="1.5" stroke-linecap="round" stroke-linejoin="round"/>
</svg>
