<svg width="24" height="24" viewBox="0 0 24 24" fill="none" xmlns="http://www.w3.org/2000/svg">
<path d="M19.003 8.004C20.1087 8.004 21.005 7.10767 21.005 6.002C21.005 4.89633 20.1087 4 19.003 4C17.8973 4 17.001 4.89633 17.001 6.002C17.001 7.10767 17.8973 8.004 19.003 8.004Z" fill="black"/>
<path d="M18.875 13.219C18.308 13.672 17.897 14 16.997 14C16.098 14 15.709 13.689 15.121 13.219C14.441 12.676 13.596 12 11.994 12C10.393 12 9.549 12.676 8.87 13.219C8.282 13.689 7.895 14 6.995 14C6.097 14 5.709 13.689 5.122 13.22C4.59965 12.8015 3.98023 12.3049 2.99377 12.098C2.45325 11.9847 2 12.4477 2 13C2 13.5523 2.46987 13.9595 2.97649 14.1794C3.29212 14.3164 3.5526 14.5248 3.872 14.78C4.551 15.324 5.395 16 6.995 16C8.595 16 9.441 15.324 10.12 14.78C10.707 14.31 11.096 14 11.994 14C12.894 14 13.305 14.328 13.872 14.781C14.551 15.324 15.396 16 16.997 16C18.599 16 19.444 15.324 20.124 14.781C20.4446 14.5247 20.7061 14.3157 21.0233 14.1786C21.5303 13.9595 22 13.5523 22 13C22 12.4477 21.5468 11.9847 21.0062 12.0978C20.0183 12.3046 19.3975 12.8012 18.875 13.219ZM16.997 19C16.098 19 15.709 18.689 15.121 18.219C14.441 17.676 13.596 17 11.994 17C10.393 17 9.549 17.676 8.87 18.219C8.282 18.689 7.895 19 6.995 19C6.097 19 5.709 18.689 5.122 18.22C4.59965 17.8015 3.98023 17.3049 2.99377 17.098C2.45325 16.9847 2 17.4477 2 18C2 18.5523 2.46987 18.9595 2.97649 19.1794C3.29212 19.3164 3.5526 19.5248 3.872 19.78C4.551 20.324 5.395 21 6.995 21C8.595 21 9.441 20.324 10.12 19.78C10.707 19.31 11.096 19 11.994 19C12.894 19 13.305 19.328 13.872 19.781C14.551 20.324 15.396 21 16.997 21C18.599 21 19.444 20.324 20.124 19.781C20.4446 19.5247 20.7061 19.3157 21.0233 19.1786C21.5303 18.9595 22 18.5523 22 18C22 17.4477 21.5468 16.9847 21.0062 17.0978C20.0183 17.3046 19.3975 17.8012 18.875 18.219C18.308 18.672 17.897 19 16.997 19ZM10.2929 6.1261C10.6834 5.73558 11.3166 5.73557 11.7071 6.1261L12.529 6.94803C12.8563 7.27534 12.8851 7.79643 12.5959 8.15781L11.6426 9.34891C11.4393 9.60287 11.6687 9.99999 11.994 9.99999C13.596 9.99999 14.441 10.676 15.121 11.219C15.709 11.689 16.098 12 16.997 12C17.897 12 18.308 11.672 18.875 11.219C19.0946 11.0443 19.1185 10.714 18.9198 10.5159L17.2045 8.80549C17.2031 8.80411 17.2031 8.80187 17.2045 8.80049C17.2059 8.79911 17.2059 8.79687 17.2045 8.79549L11.707 3.29799C11.6142 3.20505 11.504 3.13131 11.3827 3.081C11.2614 3.03069 11.1313 3.00479 11 3.00479C10.8687 3.00479 10.7386 3.03069 10.6173 3.081C10.496 3.13131 10.3858 3.20505 10.293 3.29799L7 6.59099C6.60953 6.98146 6.60953 7.61453 7 8.00499C7.39047 8.39546 8.02353 8.39546 8.414 8.00499L10.2929 6.1261Z" fill="black"/>
</svg>
