<svg width="25" height="24" viewBox="0 0 25 24" fill="none" xmlns="http://www.w3.org/2000/svg">
<path fill-rule="evenodd" clip-rule="evenodd" d="M13.5 16.5H11.5C9.291 16.5 7.5 14.709 7.5 12.5V4.5C7.5 3.948 7.948 3.5 8.5 3.5H16.5C17.052 3.5 17.5 3.948 17.5 4.5V12.5C17.5 14.709 15.709 16.5 13.5 16.5Z" stroke="#010101" stroke-width="1.5"/>
<path d="M12.5 16.5V20.5" stroke="#010101" stroke-width="1.5"/>
<path d="M9.5 20.5H15.5" stroke="#010101" stroke-width="1.5" stroke-linecap="round" stroke-linejoin="round"/>
<path d="M17.5 6.5H20.5C21.052 6.5 21.5 6.948 21.5 7.5V9.5C21.5 11.157 20.157 12.5 18.5 12.5H17.5" stroke="#010101" stroke-width="1.5" stroke-linecap="round" stroke-linejoin="round"/>
<path d="M7.5 6.5H4.5C3.948 6.5 3.5 6.948 3.5 7.5V9.5C3.5 11.157 4.843 12.5 6.5 12.5H7.5" stroke="#010101" stroke-width="1.5" stroke-linecap="round" stroke-linejoin="round"/>
</svg>
